<svg width="135" height="135" viewBox="0 0 135 135" fill="none" xmlns="http://www.w3.org/2000/svg">
<path d="M44.9149 3.59253L40.4325 9.58315L44.9149 15.5733L49.4052 9.58263L44.9149 3.59253ZM98.9429 5.59512L93.0596 13.4394L98.9429 21.2915L104.817 13.4394L98.9429 5.59512ZM64.5917 10.473L58.7166 18.3173L64.5912 26.1615L70.4745 18.3173L64.5917 10.473ZM14.2462 11.3624L9.76376 17.3525L14.2462 23.3431L18.737 17.3525L14.2467 11.3624H14.2462ZM117.375 17.9128L113.791 25.6666L106.029 29.251L113.791 32.9835L117.375 40.5889L120.951 32.8351L128.713 29.251L121.099 25.6669L117.375 17.9133V17.9128ZM38.0594 21.3986L33.5604 31.146L23.813 35.645L33.5609 40.3331L38.0597 49.8912L42.55 40.1438L52.298 35.6447L42.7399 31.146L38.0597 21.398L38.0594 21.3986ZM93.0598 23.8291L87.1765 31.6733L93.0598 39.5255L98.9344 31.6733L93.0598 23.8291ZM66.651 40.4736L61.773 46.9832L66.651 53.5006L71.5289 46.9826L66.651 40.4736ZM93.8176 48.6641L90.1262 56.6731L82.1172 60.3645L90.1262 64.2123L93.8176 72.0734L97.5175 64.0644L105.526 60.3645L97.6735 56.6731L93.8173 48.6641H93.8176ZM22.5192 50.5011L18.0288 56.4838L22.5192 62.4739L27.0016 56.4833L22.5192 50.5011ZM47.3373 57.6371L42.8548 63.6277L47.3373 69.6176L51.8281 63.6277L47.3378 57.6371H47.3373ZM66.4949 63.9816C64.4717 64.0106 62.7254 65.1243 60.7766 66.6262C48.6385 75.9873 33.2696 89.5728 33.0832 97.1631C30.9113 97.4215 28.9794 98.551 28.9794 100.542C28.9794 103.51 33.0357 104.575 35.9996 103.771C35.9618 103.959 35.9426 104.149 35.9422 104.34C35.9422 108.579 44.2215 108.942 45.7639 105.518C54.887 107.957 66.0767 108.367 76.3006 107.141C76.9207 111.083 85.2538 111.142 86.2378 107.413C88.9397 109.396 93.8606 109.512 96.8422 107.776C99.6569 109.561 105.387 108.683 105.387 105.188C105.387 104.671 105.265 104.213 105.041 103.812C106.586 103.143 107.694 101.969 107.694 100.285C107.694 96.5065 102.119 95.3482 98.5397 96.7011C97.3437 88.4817 82.7985 74.3539 71.9421 66.1975C69.8082 64.5943 68.0693 63.9584 66.4957 63.981L66.4949 63.9816ZM20.2289 93.6199C17.3944 93.6259 14.56 94.9435 14.56 97.5504C14.56 102.764 25.8978 102.666 25.8978 97.5504C25.8978 94.9195 23.0626 93.6138 20.2289 93.6196V93.6199ZM123.176 97.056C120.659 97.0671 118.141 98.2204 118.141 100.492C118.141 105.167 128.21 105.124 128.21 100.492C128.21 98.1758 125.693 97.045 123.176 97.056ZM10.1266 101.201C7.6093 101.206 5.09229 102.37 5.09229 104.686C5.09229 109.319 15.1611 109.23 15.1611 104.686C15.1611 102.349 12.6438 101.196 10.1266 101.201ZM118.686 107.397C115.851 107.403 113.017 108.72 113.017 111.327C113.017 116.541 124.346 116.443 124.346 111.327C124.346 108.696 121.52 107.391 118.685 107.396L118.686 107.397ZM46.4803 109.135C44.8983 109.139 43.3178 109.601 42.3607 110.52C39.3986 109.232 34.4835 110.233 34.4835 113.47C34.4835 117.242 41.1589 117.876 43.6382 115.529C46.6003 116.795 51.5154 115.796 51.5154 112.621C51.5154 110.284 48.9981 109.13 46.4809 109.135H46.4803ZM69.4778 109.556C66.9605 109.567 64.4432 110.72 64.4432 112.991C64.4432 117.665 74.5123 117.624 74.5123 112.991C74.5123 110.676 71.9951 109.545 69.4778 109.556ZM18.8528 112.028C16.3355 112.033 13.8182 113.197 13.8182 115.513C13.8182 120.145 23.8873 120.056 23.8873 115.513C23.8873 113.176 21.3701 112.022 18.8528 112.028ZM97.5586 115.505C95.0413 115.515 92.524 116.677 92.524 118.949C92.524 121.552 95.648 122.694 98.4155 122.393C98.2265 122.803 98.1271 123.259 98.1271 123.761C98.1271 128.723 107.758 129.172 109.663 125.219C112.382 125.439 115.365 124.28 115.365 121.759C115.365 117.879 108.298 117.308 106.004 119.897C104.864 119.657 103.614 119.644 102.453 119.847C102.544 119.569 102.593 119.272 102.593 118.949C102.593 116.633 100.076 115.494 97.5589 115.505H97.5586ZM57.7689 116.428C54.8822 116.44 52.0011 117.77 52.0011 120.374C52.0011 125.735 63.5446 125.686 63.5446 120.374C63.5446 117.719 60.6553 116.415 57.7687 116.428L57.7689 116.428ZM84.2927 121.091C80.9836 121.098 77.6761 122.636 77.6761 125.681C77.6761 131.769 90.909 131.653 90.909 125.681C90.909 122.609 87.6015 121.084 84.293 121.091H84.2927ZM43.9509 122.863C41.0642 122.876 38.1747 124.204 38.1747 126.81C38.1747 132.169 49.7188 132.121 49.7188 126.81C49.7188 124.154 46.8376 122.85 43.9509 122.863V122.863Z" fill="black"/>
</svg>
