<svg width="75" height="103" viewBox="0 0 75 103" fill="none" xmlns="http://www.w3.org/2000/svg">
<path d="M69.4168 56.6897C67.0397 52.1731 64.9363 47.5542 63.1152 42.8516C62.1499 40.3851 62.036 39.8404 62.3178 39.7685C62.88 39.4513 63.3919 39.073 63.8407 38.6431C64.6979 38.0116 65.2823 37.1512 65.4998 36.2005C65.7173 35.2498 65.5553 34.2641 65.0399 33.4018C64.6095 32.5483 63.9008 31.8194 62.9989 31.3025C62.097 30.7857 61.0402 30.503 59.9554 30.4883H59.068V28.7155C59.068 27.0095 59.068 26.953 59.7216 26.6292C60.8736 25.9942 61.7663 25.0674 62.2758 23.9777C62.6535 23.0939 62.8754 22.9141 64.2005 22.2923C65.8414 21.6106 67.1629 20.4708 67.9478 19.0601C68.4488 18.1672 68.6561 17.1741 68.5474 16.1877V14.42H69.3209C69.8181 14.409 70.2922 14.238 70.6489 13.9409C71.0056 13.6438 71.2186 13.2424 71.2455 12.8168C71.2114 12.4389 71.0388 12.0799 70.7523 11.791C70.4659 11.5022 70.0803 11.2983 69.6507 11.2085C69.2309 11.2085 69.207 11.0903 69.2969 9.03998C69.4408 6.47071 69.207 5.56633 68.0977 4.44099C65.6994 2.05156 59.6376 0.725819 48.5094 0.165718C44.0126 -0.0552393 24.7061 -0.0552393 21.0966 0.165718C16.0969 -0.0346591 11.1783 1.30303 7.22828 3.93741C5.82526 5.28371 5.54346 6.20865 5.68136 8.97832C5.80128 11.0697 5.77729 11.1879 5.35159 11.1879C4.65008 11.1879 3.7627 12.0923 3.7627 12.7963C3.78426 13.2262 3.99804 13.6325 4.35972 13.931C4.7214 14.2295 5.20324 14.3972 5.70534 14.3995H6.4848L6.36488 15.4837C6.26995 16.4648 6.41975 17.4519 6.80432 18.3795C7.18888 19.3071 7.79941 20.154 8.59533 20.8638C9.28149 21.3513 10.009 21.7944 10.7718 22.1895C12.1089 22.8729 12.3427 23.1145 12.7144 23.9572C13.2303 25.0498 14.1317 25.9768 15.2926 26.6087C15.8922 26.9324 15.9282 26.9889 15.9282 28.6949V30.4626H15.0828C14.3353 30.4527 13.5942 30.5822 12.9109 30.8422C12.2275 31.1021 11.6184 31.4864 11.1256 31.9682C10.3463 32.549 9.78845 33.3171 9.52439 34.1728C9.26034 35.0285 9.30222 35.9325 9.64459 36.7676C10.2927 37.9212 11.2882 38.9057 12.5286 39.6195C12.9723 39.8404 12.9483 39.9637 11.5213 43.6378C9.64679 48.4097 7.48132 53.0939 5.03381 57.6712C1.36697 63.0458 -0.362451 69.2301 0.0632878 75.4454C-0.0748128 79.7766 0.950912 84.077 3.06119 88.0143C4.56901 90.8494 7.17753 93.1485 10.442 94.5197C11.4422 94.8848 12.2626 95.5371 12.7624 96.3644C14.8041 99.0865 17.8337 101.158 21.3844 102.258L23.1831 102.772H37.4532C42.7479 103.181 48.0809 103.039 53.3361 102.351C56.9786 101.259 60.0941 99.1606 62.1919 96.385C62.5576 95.853 63.0075 95.3671 63.5289 94.941C65.5589 94.1794 67.3929 93.0809 68.9252 91.7089C73.3016 87.1638 75.4508 81.3413 74.921 75.466C75.1548 68.5752 74.5732 66.53 69.4168 56.6897ZM59.8595 33.6999C60.123 33.6921 60.3853 33.7342 60.6277 33.823C60.8702 33.9118 61.0869 34.0452 61.2625 34.2137C61.5325 34.4392 61.7155 34.7301 61.787 35.0474C61.8584 35.3647 61.8148 35.6931 61.662 35.9885C61.5093 36.2839 61.2547 36.5321 60.9324 36.6999C60.6102 36.8676 60.2358 36.9468 59.8595 36.9269H59.068V33.6999H59.8595ZM9.36279 8.336C9.36279 6.31142 9.66858 5.8695 11.5932 5.10386C15.0844 3.9867 18.7682 3.37542 22.4936 3.29509C23.0932 3.25912 29.4967 3.25912 36.7816 3.29509C46.8846 3.35675 50.7698 3.43897 53.1862 3.68048C57.222 3.7668 61.181 4.64579 64.7581 6.24975C65.6035 6.83041 65.6035 6.85096 65.6035 8.336C65.6035 9.82104 65.3696 10.525 64.6921 10.9669C64.4103 11.1673 58.2226 11.2084 37.5371 11.229H10.7238L10.0463 10.6483C9.41075 10.0626 9.36279 9.94437 9.36279 8.336ZM12.7624 19.4815C11.8561 19.1475 11.1008 18.5705 10.6099 17.8372C10.2401 17.412 10.0438 16.8943 10.0514 16.364C10.0589 15.8337 10.27 15.3203 10.6519 14.9031L11.2155 14.3892H63.7448L64.3084 14.9031C64.6799 15.3192 64.8872 15.8259 64.9001 16.3498C64.913 16.8736 64.731 17.3874 64.3803 17.8166C63.9344 18.552 63.2058 19.1329 62.3178 19.461C61.5477 19.7409 60.8504 20.1495 60.2667 20.663C59.683 21.1765 59.2246 21.7845 58.9181 22.4516C58.2406 24.1781 60.0214 24.0394 37.4831 24.0394C30.6419 24.3404 23.7846 24.2391 16.9595 23.7362C16.4885 23.3289 16.1478 22.8246 15.9702 22.2717C15.3886 20.9049 14.9449 20.5555 12.7624 19.4815ZM37.4831 36.9114H19.6756V33.6999H55.2907V36.9114H37.4831ZM55.2907 40.123V42.0294C55.2907 43.7971 55.2427 43.9975 54.6911 44.4394L54.1275 44.9533H20.8208L20.2632 44.4394C19.7235 43.9975 19.6636 43.7971 19.6636 42.0294V40.123H55.2787H55.2907ZM37.4831 30.4831H19.6756V28.8799H55.2907V30.4831H37.4831ZM15.1068 33.6999H15.8982V36.9114H15.1068C14.8518 36.9238 14.5966 36.8915 14.3567 36.8163C14.1168 36.7412 13.8974 36.625 13.7118 36.4746C13.5261 36.3243 13.3783 36.1431 13.2772 35.9421C13.1762 35.7411 13.1241 35.5245 13.1241 35.3057C13.1241 35.0868 13.1762 34.8702 13.2772 34.6692C13.3783 34.4682 13.5261 34.287 13.7118 34.1367C13.8974 33.9864 14.1168 33.8701 14.3567 33.795C14.5966 33.7199 14.8518 33.6875 15.1068 33.6999ZM8.31352 59.3001C10.6971 54.7797 12.8614 50.1768 14.801 45.5031L15.8083 42.9338L15.9702 43.7971C16.0707 44.3505 16.252 44.8909 16.5098 45.4055C17.2736 46.5306 18.4528 47.4057 19.8614 47.8925C20.539 48.0724 25.3656 48.134 37.5311 48.134C56.5978 48.134 55.7104 48.2162 57.4672 46.5308C58.4224 45.6849 58.9888 44.5718 59.062 43.3963C59.062 43.0366 59.5537 43.9975 60.3032 45.8268C62.1805 50.3523 64.2749 54.8095 66.5808 59.187C67.9418 61.7563 69.2729 64.4489 69.5787 65.1118C70.5146 66.91 70.9557 68.8686 70.8678 70.8361C68.6442 69.6916 66.5716 68.3443 64.6861 66.8178C64.7758 66.5018 64.9003 66.1938 65.0579 65.898C65.332 65.3576 65.4288 64.7634 65.338 64.1793C65.2471 63.5953 64.972 63.0435 64.5422 62.5836C63.7208 61.8385 63.0912 61.597 60.3451 61.0421L58.2346 60.6001L55.8903 58.6321C54.2927 57.0343 52.2774 55.7825 50.0084 54.9786C48.6879 54.6433 47.2902 54.5979 45.9439 54.8466C44.5975 55.0953 43.3458 55.6302 42.3038 56.4019C41.5975 56.7767 40.8691 57.1197 40.1213 57.4297C40.0074 57.4708 39.4198 56.9158 38.8142 56.2478C38.203 55.3817 37.3338 54.6705 36.2959 54.1874C35.258 53.7043 34.0888 53.4666 32.9083 53.4987C32.2446 53.6792 31.6304 53.973 31.1028 54.3625C30.5752 54.752 30.1451 55.229 29.8385 55.7648L29.161 56.7514C28.4374 56.6509 27.7238 56.5031 27.0264 56.3095C24.9241 55.7169 22.728 55.4049 20.515 55.3845C19.3404 55.3232 18.1717 55.5686 17.1633 56.0885C14.765 57.1162 12.4087 59.0997 5.11776 66.1241C5.90822 63.7618 6.97907 61.4752 8.31352 59.3001ZM33.4959 89.9207C32.89 89.428 32.1956 89.022 31.4394 88.7183C28.0607 87.3812 25.4327 84.9572 24.1245 81.9713C23.6546 80.5202 23.5443 79.0009 23.8007 77.5111C23.9626 76.9972 23.6328 76.9304 28.1117 78.2767C29.8445 78.7906 32.6085 79.7001 34.2454 80.3013L37.2433 81.3856L37.0994 82.5931C37.1415 84.4397 37.6794 86.2532 38.6713 87.8929C39.6633 89.5326 41.0827 90.9544 42.8194 92.048L44.2704 93.1117L42.9333 93.2556C39.7534 93.3943 36.5652 93.2393 33.424 92.7931C31.4753 92.49 31.3614 92.4488 32.1109 92.3101C32.4127 92.2717 32.6993 92.1715 32.9462 92.0178C33.1931 91.8642 33.393 91.6617 33.529 91.4276C33.665 91.1935 33.733 90.9347 33.7273 90.6732C33.7215 90.4117 33.6421 90.1502 33.4959 89.9207ZM35.9842 68.534C37.1582 68.7192 38.3224 68.9472 39.4737 69.2175L40.8768 69.6029H38.5384C35.3641 69.4253 32.2348 70.3199 29.8205 72.0951C29.1857 72.5977 28.6331 73.1716 28.1776 73.8011C27.8539 74.2841 27.4521 74.6232 27.3142 74.5873C24.3585 73.815 21.3903 73.0784 18.4105 72.3777L16.3239 71.9409L17.5231 71.1958C20.0915 69.7203 23.0445 68.8096 26.1211 68.5443C29.395 68.1829 32.7092 68.1795 35.9842 68.534ZM33.0522 57.3937L33.7537 56.5664L34.4612 57.0083C35.0002 57.3755 35.4801 57.8023 35.8882 58.2775C37.4772 60.2317 38.5044 62.4802 38.8862 64.8394C38.9341 65.4818 38.8862 65.7027 38.6523 65.6667C37.693 65.4818 33.7058 65.0244 33.0762 65.0244C32.4467 65.0244 32.3028 64.9217 32.0689 64.3615C31.6617 63.205 31.5389 61.9886 31.7081 60.7893C31.8774 59.5899 32.335 58.4337 33.0522 57.3937ZM17.1933 75.466C18.7402 75.8051 20.0233 76.0672 20.0473 76.0672C20.0713 76.0672 20.0473 77.0949 19.9814 78.3127C19.8108 81.0724 20.6277 83.8109 22.3228 86.1618C24.018 88.5126 26.5105 90.3637 29.4667 91.4674C31.3434 92.4129 31.0856 92.4334 28.6933 91.5856C25.6148 90.7717 22.7612 89.4307 20.3052 87.6438C17.8493 85.857 15.8421 83.6615 14.4053 81.1903C13.8543 79.4025 13.7259 77.5384 14.0275 75.7075C14.1088 75.4189 14.2192 75.137 14.3573 74.8647L17.1933 75.466ZM33.2201 76.4937L31.1815 75.8308L31.5773 75.2296C32.4927 74.2049 33.7897 73.4796 35.2527 73.1742C36.7413 72.8638 38.2835 72.789 39.8035 72.9532C42.8674 73.056 42.9393 73.056 43.4789 72.5935C43.8233 72.2997 44.0247 71.9049 44.0425 71.4887C44.0425 71.1701 44.1145 70.8875 44.1805 70.8875C44.7331 71.0993 45.2663 71.3467 45.7753 71.6275C47.981 72.8062 50.0598 74.1509 51.987 75.6458L53.462 76.8122L51.5133 76.8482C48.6 76.8916 45.7944 77.7997 43.5749 79.4175L42.5916 80.0804L38.9341 78.6313C37.0614 77.8497 35.1554 77.1281 33.2201 76.468V76.4937ZM43.6648 59.444C47.3462 57.5376 48.0717 57.4554 50.3202 58.7451L51.6572 59.5056L50.4581 59.6855C48.0886 59.9396 45.7767 60.4955 43.5989 61.3349L42.1179 61.9978L41.8841 61.5148C41.5363 60.6053 41.6802 60.446 43.6648 59.4183V59.444ZM52.7784 71.9409L51.7472 71.2164C49.1235 69.4766 46.2399 68.0457 43.1732 66.9617C42.5196 66.7818 42.4956 66.5609 43.1072 65.7335C43.8565 64.9812 44.7719 64.3632 45.8009 63.9152C46.8299 63.4672 47.9522 63.198 49.103 63.1232C50.9172 62.7491 52.8137 62.7845 54.6072 63.2259C56.9321 63.601 59.2318 64.083 61.4963 64.6699C61.964 65.0912 55.7823 70.5535 53.8097 71.4373L52.7784 71.9409ZM3.81067 75.5379L3.69675 72.5267L5.80727 70.3582C9.54148 66.0697 13.9112 62.2159 18.8062 58.8941C20.2346 58.5096 21.7585 58.467 23.2131 58.7708C23.9146 58.8941 25.2277 59.1716 26.1391 59.3926L27.8299 59.8139L27.9438 61.967C27.9749 62.8276 28.069 63.6857 28.2256 64.5363C28.3695 64.9165 28.2976 64.9782 27.626 65.0758C23.7912 65.336 20.0591 66.2664 16.6597 67.8095C15.1209 68.586 13.7564 69.5918 12.6305 70.7796L12.2768 71.2421L10.0763 70.9183C9.16772 70.789 8.25368 70.6896 7.33621 70.6203C6.89189 70.6846 6.48497 70.8734 6.17906 71.1569C5.87314 71.4405 5.68547 71.8029 5.64539 72.1876C5.64539 73.2512 6.28094 73.652 8.45742 73.9501C9.14801 74.0208 9.8301 74.1429 10.496 74.3149C10.5225 74.6078 10.4755 74.9022 10.3581 75.1782C9.9587 77.1569 10.0301 79.1844 10.5679 81.1389C11.3443 83.7832 13.0127 86.1728 15.3646 88.0091C17.7185 90.0791 20.4786 91.7784 23.5189 93.0295C24.2801 93.3106 24.9955 93.675 25.6474 94.1137C25.5095 94.1137 24.2444 94.011 22.8414 93.8928C8.94308 92.752 4.37427 88.3534 3.81067 75.5379ZM53.6718 98.7949L52.1489 99.4578H22.8174L21.2944 98.7949C19.6996 98.1115 17.3072 96.4466 18.1526 96.6265C18.4105 96.6881 19.4657 96.8269 20.497 96.9502C32.5858 97.8586 44.7494 97.7502 56.8136 96.6265C57.653 96.4466 55.2667 98.1115 53.6718 98.7949ZM58.2166 92.2125C57.5151 92.3101 46.267 93.1323 45.7993 93.1323C45.7514 93.1323 45.9612 92.9113 46.267 92.6184C47.3702 91.6935 47.1124 91.1693 44.5582 88.9598C42.6479 87.6512 41.3309 85.8119 40.8348 83.7596L40.6909 82.8192L43.0113 83.8829C47.3254 85.897 51.4527 88.1921 55.3566 90.748C56.7177 91.6524 57.6291 91.7346 58.4505 91.01C59.2719 90.2855 59.2479 89.4017 58.0967 88.5179C55.1977 86.577 52.1708 84.7807 49.0311 83.1378C48.0965 82.7231 47.2296 82.2048 46.4529 81.5962C47.5945 80.853 48.916 80.3385 50.3202 80.0906C51.2849 79.9592 52.269 79.9731 53.2281 80.1317C54.7271 80.3322 54.889 80.3322 55.4766 79.9313L56.1061 79.5305L56.5078 79.9519C56.7417 80.1934 57.4911 81.1183 58.1687 82.0073C60.2301 84.2662 61.6506 86.905 62.3178 89.7151C62.3178 91.0871 61.0287 91.8682 58.2166 92.2125ZM71.1256 76.8482C70.9387 79.2963 70.483 81.7239 69.7646 84.0987C69.1061 85.8684 68.0915 87.5257 66.7667 88.9957L66.1131 89.5404L65.9452 88.7388C64.2222 83.7779 61.1572 79.2356 56.9995 75.4814L55.7344 74.2995L56.9755 73.5184C57.6291 73.0765 59.08 71.9769 60.1833 71.0879C61.2865 70.1989 62.1979 69.459 62.2458 69.4384C62.2938 69.4179 62.9713 69.9215 63.7688 70.5021C65.9401 71.9696 68.217 73.3185 70.586 74.541L71.2635 74.9007L71.1256 76.8482Z" fill="black"/>
</svg>
