<svg width="124" height="124" viewBox="0 0 124 124" fill="none" xmlns="http://www.w3.org/2000/svg">
<path d="M108.5 87.4665V51.6667C108.5 32.1832 108.5 22.4389 102.445 16.3887C96.3894 10.3385 86.6503 10.3334 67.1668 10.3334H62.0001C42.5166 10.3334 32.7722 10.3334 26.7221 16.3887C20.6719 22.444 20.6667 32.1832 20.6667 51.6667V100.75" stroke="black" stroke-width="1.5" stroke-linecap="round"/>
<path d="M108.5 87.8334H33.5834C30.1577 87.8334 26.8723 89.1942 24.45 91.6166C22.0276 94.0389 20.6667 97.3243 20.6667 100.75C20.6667 104.176 22.0276 107.461 24.45 109.884C26.8723 112.306 30.1577 113.667 33.5834 113.667H108.5" stroke="black" stroke-width="1.5" stroke-linecap="round"/>
<path d="M108.5 113.667C105.074 113.667 101.789 112.306 99.3667 109.884C96.9444 107.461 95.5835 104.176 95.5835 100.75C95.5835 97.3243 96.9444 94.0389 99.3667 91.6166C101.789 89.1942 105.074 87.8334 108.5 87.8334" stroke="black" stroke-width="1.5" stroke-linecap="round"/>
<path d="M74.338 35.3917C76.0321 34.2396 78.0346 33.6256 80.0833 33.6299C85.7925 33.6299 90.4167 38.2954 90.4167 44.0511C90.4167 49.7189 85.746 54.4567 80.0833 54.4567V59.4167C80.0833 64.2889 80.0833 66.7224 78.5695 68.2362C77.0557 69.7501 74.6222 69.7501 69.75 69.7501H59.4167C54.5445 69.7501 52.111 69.7501 50.5972 68.2362C49.0833 66.7224 49.0833 64.2889 49.0833 59.4167V55.1026C43.0487 55.1026 38.75 50.6076 38.75 44.0511C38.75 38.2954 43.3742 33.6299 49.0833 33.6299C51.212 33.6299 53.1857 34.2757 54.8287 35.3866C55.5281 33.3548 56.8435 31.5916 58.5919 30.3424C60.3402 29.0932 62.4345 28.4201 64.5833 28.4167C69.0887 28.4167 72.9223 31.3256 74.338 35.3917ZM74.338 35.3917C74.7169 36.4733 74.9098 37.6237 74.9167 38.8431" stroke="black" stroke-width="1.5" stroke-linecap="round" stroke-linejoin="round"/>
</svg>
